<?xml version="1.0" standalone="no"?>
<!DOCTYPE svg PUBLIC "-//W3C//DTD SVG 1.1//EN" "http://www.w3.org/Graphics/SVG/1.1/DTD/svg11.dtd" >
<svg>
<metadata>
Created by FontForge 20090622 at Mon Apr 13 18:28:35 2020
 By deploy user
Made by Amazingmax
</metadata>
<defs>
<font id="AmazObitaemOstrovV.2" horiz-adv-x="578" >
  <font-face 
    font-family="AmazObitaemOstrovV.2"
    font-weight="400"
    font-stretch="normal"
    units-per-em="1000"
    panose-1="0 0 0 0 0 0 0 0 0 0"
    ascent="800"
    descent="-200"
    x-height="694"
    cap-height="694"
    bbox="-6 -233 932 1002"
    underline-thickness="40"
    underline-position="-60"
    unicode-range="U+0020-U+2116"
  />
<missing-glyph horiz-adv-x="450" 
d="M50 0v512h350v-512h-350zM58 8h334v496h-334v-496z" />
    <glyph glyph-name=".notdef" horiz-adv-x="450" 
d="M50 0v512h350v-512h-350zM58 8h334v496h-334v-496z" />
    <glyph glyph-name="glyph1" horiz-adv-x="0" 
 />
    <glyph glyph-name="glyph2" horiz-adv-x="248" 
 />
    <glyph glyph-name="space" unicode=" " horiz-adv-x="248" 
 />
    <glyph glyph-name="space" unicode="&#x45d;" horiz-adv-x="248" 
 />
    <glyph glyph-name="space" unicode="&#x40d;" horiz-adv-x="248" 
 />
    <glyph glyph-name="space" unicode="&#xa0;" horiz-adv-x="248" 
 />
    <glyph glyph-name="exclam" unicode="!" horiz-adv-x="205" 
d="M22 700h160v-441l-160 -117v558zM22 137h160v-137l-160 -130v267z" />
    <glyph glyph-name="quotedbl" unicode="&#x22;" horiz-adv-x="387" 
d="M80 700h84v-132l-84 -72v204zM222 700h84v-132l-84 -72v204z" />
    <glyph glyph-name="numbersign" unicode="#" horiz-adv-x="825" 
d="M782 749v-146l-200 -100v-418h-145v344l-78 -45v-299h-134v235l-77 -46v-70l-134 -219v717h134v-279zM782 564v-589l-145 -159v677z" />
    <glyph glyph-name="dollar" unicode="$" horiz-adv-x="825" 
d="M14 -184v146l200 100v418h145v-344l78 45v299h134v-235l77 46v70l134 219v-717h-134v279zM14 1v589l145 159v-677z" />
    <glyph glyph-name="percent" unicode="%" horiz-adv-x="825" 
d="M148 142v-279h-134v717l134 -219v-70l77 -46v235h134v-299l78 -45v344h145v-418l200 -100v-146zM637 72v677l145 -159v-589z" />
    <glyph glyph-name="ampersand" unicode="&#x26;" horiz-adv-x="825" 
d="M648 423v279h134v-717l-134 219v70l-77 46v-235h-134v299l-78 45v-344h-145v418l-200 100v146zM159 493v-677l-145 159v589z" />
    <glyph glyph-name="quotesingle" unicode="'" horiz-adv-x="222" 
d="M72 700h84v-132l-84 -72v204z" />
    <glyph glyph-name="parenleft" unicode="(" horiz-adv-x="216" 
d="M35 406.5q-12 -293.5 178 -535.5v195q-55 101 -65 138t-15 92t1 120t12 104t24 70.5t45 58.5v151v0v0v0h-4v0q-164 -100 -176 -393.5z" />
    <glyph glyph-name="parenright" unicode=")" horiz-adv-x="216" 
d="M-2 800v0h-4v0v0v0v-151q27 -27 45 -58.5t24 -70.5t12 -104t1 -120t-15 -92t-65 -138v-195q190 242 178 535.5t-176 393.5z" />
    <glyph glyph-name="asterisk" unicode="*" horiz-adv-x="393" 
d="M215 670v-147h152v25h-106l83 98l-30 24l-76 -92v92h-23zM179 652v-135h-129v-30h129v-141h30v141h135v30h-135v135h-30zM33 481v-25h88l-88 -85l26 -29l91 90v-110h23v159h-140zM215 481v-147h23v92l82 -92l29 29l-88 93h106v25h-152zM215 334h23v-12h-23v12zM150 670
v-92l-76 92l-30 -24l83 -98h-106v-25h152v147h-23z" />
    <glyph glyph-name="plus" unicode="+" horiz-adv-x="424" 
d="M210 564l75 -80h-42v-88h84v44l84 -84l-84 -80v48h-84v-84h40l-76 -76l-72 76h40v84h-80v-44l-80 76l76 76v-36h84v88l-44 -1z" />
    <glyph glyph-name="comma" unicode="," horiz-adv-x="157" 
d="M27 101h101v-101l-101 -70v171z" />
    <glyph glyph-name="hyphen" unicode="-" horiz-adv-x="368" 
d="M33 379h293v-83h-293v83z" />
    <glyph glyph-name="hyphen" unicode="&#xad;" horiz-adv-x="368" 
d="M33 379h293v-83h-293v83z" />
    <glyph glyph-name="period" unicode="." horiz-adv-x="157" 
d="M27 101h101v-101h-101v101z" />
    <glyph glyph-name="slash" unicode="/" horiz-adv-x="626" 
d="M60 -137l-58 143l471 805h141z" />
    <glyph glyph-name="zero" unicode="0" 
d="M99 699h453v-658q-14 -41 -66 -41h-387q-76 0 -76 82v566q24 51 76 51zM193 546v-391h189v391h-189z" />
    <glyph glyph-name="one" unicode="1" horiz-adv-x="179" 
d="M163 0h-141v689l141 122v-811z" />
    <glyph glyph-name="two" unicode="2" 
d="M28 698l532 1v-328q0 -97 -110 -97h-253v-105h177l186 -169h-540v322q0 89 76 89h287v111h-262z" />
    <glyph glyph-name="three" unicode="3" 
d="M23 700h412q129 0 129 -82v-205l-69 -73l69 -66v-204q0 -74 -95 -74h-455l86 172h284v106h-69l-103 139h172v107h-267z" />
    <glyph glyph-name="four" unicode="4" 
d="M29 689h178v-239l141 -82v-232l-319 194v359zM378 699h179v-810l-179 160v650z" />
    <glyph glyph-name="five" unicode="5" 
d="M23 655v-242l358 -190v-67h-190v105l-168 95v-352h537v305l-358 171v57h358v162h-495q-35 -14 -42 -44z" />
    <glyph glyph-name="six" unicode="6" 
d="M23 655v-242l358 -190v-67h-190v195l-168 75v-422h537v305l-358 171v57h358v162h-495q-35 -14 -42 -44z" />
    <glyph glyph-name="seven" unicode="7" horiz-adv-x="562" 
d="M20 541h349v-105l-160 -85v-350h160v303l169 95v293h-379z" />
    <glyph glyph-name="eight" unicode="8" 
d="M375 276h-182v-88l17 -16h158l133 -160q-18 -6 -43 -8h-438v264l58 81l-58 64v184q0 96 107 96h430v-272l-58 -64l58 -81v-184q0 -47 -34 -69q-3 -2 -5 -3l-143 167v89zM193 517v-88l17 -16h165v104h-182z" />
    <glyph glyph-name="nine" unicode="9" 
d="M560 48v242l-358 190v67h190v-195l168 -75v422h-467q-69 -5 -70 -63v-242l358 -171v-57h-358v-162h495q35 14 42 44z" />
    <glyph glyph-name="colon" unicode=":" horiz-adv-x="157" 
d="M27 101h101v-101h-101v101zM27 391h101v-101h-101v101z" />
    <glyph glyph-name="semicolon" unicode=";" horiz-adv-x="157" 
d="M27 101h101v-101l-101 -100v201zM27 391h101v-101h-101v101z" />
    <glyph glyph-name="equal" unicode="=" horiz-adv-x="457" 
d="M46 453h375v-105h-375v105zM46 278h375v-105h-375v105z" />
    <glyph glyph-name="question" unicode="?" horiz-adv-x="414" 
d="M31 571l104 128h189q69 0 69 -81v-258q0 -81 -87 -81h-162v-55l-115 -68v268h243v147h-241zM28 116l116 69v-181l-116 1v111z" />
    <glyph glyph-name="A" unicode="A" 
d="M24 699h479q61 -17 58 -87v-612h-176v321l-185 -94v-325l-176 100v307l361 195v49h-185v-116l-176 -96v358z" />
    <glyph glyph-name="B" unicode="B" horiz-adv-x="585" 
d="M28 699h449q58 0 82 -59v-210l-97 -74l97 -57v-299h-322v156h150v110l-187 72v-333l-172 -105v799zM200 544v-165l187 91v74h-187z" />
    <glyph glyph-name="C" unicode="C" horiz-adv-x="584" 
d="M528 700q40 -1 36 -85v-194h-181v127h-188v-388h264l-136 -160h-233q-57 0 -68 84v616h506z" />
    <glyph glyph-name="D" unicode="D" horiz-adv-x="619" 
d="M39 699h180l371 -188v-422q6 -66 -64 -89h-254v165h141v248l-194 97v-610l-180 100v699z" />
    <glyph glyph-name="E" unicode="E" horiz-adv-x="564" 
d="M16 700h391l147 -160h-360v-75h132l137 -159h-269v-150h206l146 -156h-530v700z" />
    <glyph glyph-name="F" unicode="F" horiz-adv-x="600" 
d="M24 700h562l-84 -141h-315v-159h156l55 -141h-211v-259l-163 -100v800z" />
    <glyph glyph-name="G" unicode="G" 
d="M552 42q-14 -41 -66 -41h-387q-76 0 -76 82v566q24 51 76 51h453v-4l-170 -150h-189v-391h189v178h-172l148 141h194v-432z" />
    <glyph glyph-name="H" unicode="H" 
d="M21 700h168v-272l-168 -106v378zM374 700h176v-685h-176v299l-185 -115v-307l-168 114v281l353 217v196z" />
    <glyph glyph-name="I" unicode="I" horiz-adv-x="232" 
d="M202 1h-176v689l176 122v-811z" />
    <glyph glyph-name="J" unicode="J" horiz-adv-x="485" 
d="M456 -1l-428 -99l58 200l191 46v553h179v-700z" />
    <glyph glyph-name="K" unicode="K" 
d="M555 760v-334l-137 -79l146 -97v-246h-206v207l-146 95v-286l-189 -88v685l189 87v-318l154 79v199z" />
    <glyph glyph-name="L" unicode="L" horiz-adv-x="600" 
d="M20 699h179v-553h201l174 -147h-554v700z" />
    <glyph glyph-name="M" unicode="M" horiz-adv-x="819" 
d="M28 700h697q68 -17 68 -87v-471l-197 -121v534h-83v-405l-205 -137v542h-83v-518l-197 -129v792z" />
    <glyph glyph-name="N" unicode="N" 
d="M26 699h164v-136l201 -178v314h164v-698h-166v160l-199 172v-332h-164v698z" />
    <glyph glyph-name="O" unicode="O" horiz-adv-x="678" 
d="M137 700h514v-612q-16 -82 -79 -82h-245l-317 327h71v294q0 46 56 73zM279 537v-204h63l-152 -156h271v360h-182z" />
    <glyph glyph-name="P" unicode="P" 
d="M22 700h478q62 -32 62 -110v-262l-316 -198v206l131 85v118h-185v-533l-170 -110v804z" />
    <glyph glyph-name="Q" unicode="Q" horiz-adv-x="622" 
d="M382 290v239l170 171v-626l39 -50l-52 -177l-121 154h-319q-76 0 -76 82v566q24 51 76 51h426l-152 -154h-180v-391h103l-65 83l116 96z" />
    <glyph glyph-name="R" unicode="R" 
d="M192 239v-233l-170 -110v798l170 -162v-96l102 -69l83 54v118h-160l-173 161h456q62 -32 62 -110v-262l-114 -63l113 -75v-199l-154 -96v199z" />
    <glyph glyph-name="S" unicode="S" horiz-adv-x="579" 
d="M89 699h335l129 -166h-361v-102h318q52 -37 52 -92v-277q0 -38 -77 -56h-310l-146 157h352v111h-284q-77 0 -77 65v293q0 53 69 67z" />
    <glyph glyph-name="T" unicode="T" horiz-adv-x="658" 
d="M30 700h474l129 -162h-236v-512l-174 -130v642h-193v162z" />
    <glyph glyph-name="U" unicode="U" 
d="M198 683v-511h177v519l185 -99v-535q-24 -58 -66 -58h-473v791z" />
    <glyph glyph-name="V" unicode="V" 
d="M24 237v454h175v-365l175 -118v474l183 128v-820h-175z" />
    <glyph glyph-name="W" unicode="W" horiz-adv-x="848" 
d="M343 -10l-324 220v546l160 -130v-331l157 -105v428l164 116v-546l163 109v334l164 127v-544l-331 -224h-153z" />
    <glyph glyph-name="X" unicode="X" 
d="M22 700h185v-243l-128 -108l-57 54v297zM375 700h185v-270l-106 -88l106 -85v-258h-185v180l-85 72l-91 -72v-180h-177v252l228 186l37 -25l88 82v206z" />
    <glyph glyph-name="Y" unicode="Y" 
d="M20 700h177v-180l147 -81v-196l-324 171v286zM373 700h184v-694h-471l111 163h176v531z" />
    <glyph glyph-name="Z" unicode="Z" horiz-adv-x="579" 
d="M235 170h140l186 -169h-540v169l336 347h-235l-93 177h532v-178h-1z" />
    <glyph glyph-name="backslash" unicode="\" horiz-adv-x="626" 
d="M2 811h141l471 -805l-57 -143z" />
    <glyph glyph-name="underscore" unicode="_" horiz-adv-x="543" 
d="M0 -233v49h543v-49h-543z" />
    <glyph glyph-name="a" unicode="a" 
d="M24 699h479q61 -17 58 -87v-612h-176v321l-185 -94v-325l-176 100v307l361 195v49h-185v-116l-176 -96v358z" />
    <glyph glyph-name="b" unicode="b" horiz-adv-x="585" 
d="M28 699h449q58 0 82 -59v-210l-97 -74l97 -57v-299h-322v156h150v110l-187 72v-333l-172 -105v799zM200 544v-165l187 91v74h-187z" />
    <glyph glyph-name="c" unicode="c" 
d="M22 700h467q60 0 75 -93v-194h-181v127h-188v-388h264l-136 -160h-233q-57 0 -68 84v624z" />
    <glyph glyph-name="d" unicode="d" horiz-adv-x="600" 
d="M20 699h177l374 -188v-422q0 -45 -64 -83h-254v166h141v241l-183 98v-603h-7l-184 121v670z" />
    <glyph glyph-name="e" unicode="e" horiz-adv-x="564" 
d="M16 700h391l147 -160h-360v-75h132l137 -159h-269v-150h206l146 -156h-530v700z" />
    <glyph glyph-name="f" unicode="f" horiz-adv-x="600" 
d="M24 700h562l-84 -141h-315v-159h156l55 -141h-211v-259l-163 -100v800z" />
    <glyph glyph-name="g" unicode="g" 
d="M552 42q-14 -41 -66 -41h-387q-76 0 -76 82v566q24 51 76 51h453v-4l-170 -150h-189v-391h189v178h-172l148 141h194v-432z" />
    <glyph glyph-name="h" unicode="h" 
d="M21 700h168v-272l-168 -106v378zM374 314l-185 -115v-184h-168v272l353 217v196h176v-808l-176 114v308z" />
    <glyph glyph-name="i" unicode="i" horiz-adv-x="232" 
d="M202 1h-176v689l176 122v-811z" />
    <glyph glyph-name="j" unicode="j" horiz-adv-x="485" 
d="M456 -1l-428 -99l58 200l191 46v553h179v-700z" />
    <glyph glyph-name="k" unicode="k" 
d="M555 760v-334l-137 -79l146 -97v-246h-206v207l-146 95v-286l-189 -88v685l189 87v-318l154 79v199z" />
    <glyph glyph-name="l" unicode="l" horiz-adv-x="600" 
d="M20 699h179v-553h201l174 -147h-554v700z" />
    <glyph glyph-name="m" unicode="m" horiz-adv-x="819" 
d="M28 700h697q68 -17 68 -87v-471l-197 -121v534h-83v-405l-205 -137v542h-83v-518l-197 -129v792z" />
    <glyph glyph-name="n" unicode="n" 
d="M26 699h164v-136l201 -178v314h164v-698h-166v160l-199 172v-332h-164v698z" />
    <glyph glyph-name="o" unicode="o" 
d="M99 700h453v-658q-14 -41 -66 -41h-387q-76 0 -76 82v566q24 51 76 51zM193 546v-391h189v391h-189z" />
    <glyph glyph-name="p" unicode="p" 
d="M22 700h478q62 -32 62 -110v-262l-316 -198v206l131 85v118h-185v-533l-170 -110v804z" />
    <glyph glyph-name="q" unicode="q" horiz-adv-x="622" 
d="M382 290v239l170 171v-626l39 -50l-52 -177l-121 154h-319q-76 0 -76 82v566q24 51 76 51h426l-152 -154h-180v-391h103l-65 83l116 96z" />
    <glyph glyph-name="r" unicode="r" 
d="M192 239v-233l-170 -110v798l170 -162v-96l102 -69l83 54v118h-160l-173 161h456q62 -32 62 -110v-262l-114 -63l113 -75v-199l-154 -96v199z" />
    <glyph glyph-name="s" unicode="s" horiz-adv-x="579" 
d="M89 699h335l129 -166h-361v-102h318q52 -37 52 -92v-277q0 -38 -77 -56h-310l-146 157h352v111h-284q-77 0 -77 65v293q0 53 69 67z" />
    <glyph glyph-name="t" unicode="t" horiz-adv-x="658" 
d="M30 700h474l129 -162h-236v-512l-174 -130v642h-193v162z" />
    <glyph glyph-name="u" unicode="u" 
d="M198 683v-511h177v519l185 -99v-535q-24 -58 -66 -58h-473v791z" />
    <glyph glyph-name="v" unicode="v" 
d="M24 237v454h175v-365l175 -118v474l183 128v-820h-175z" />
    <glyph glyph-name="w" unicode="w" horiz-adv-x="848" 
d="M343 -10l-324 220v546l160 -130v-331l157 -105v428l164 116v-546l163 109v334l164 127v-544l-331 -224h-153z" />
    <glyph glyph-name="x" unicode="x" 
d="M22 700h185v-243l-128 -108l-57 54v297zM375 700h185v-270l-106 -88l106 -85v-258h-185v180l-85 72l-91 -72v-180h-177v252l228 186l37 -25l88 82v206z" />
    <glyph glyph-name="y" unicode="y" 
d="M20 700h177v-180l147 -81v-196l-324 171v286zM373 700h184v-694h-471l111 163h176v531z" />
    <glyph glyph-name="z" unicode="z" horiz-adv-x="579" 
d="M235 170h140l186 -169h-540v169l336 347h-235l-93 177h532v-178h-1z" />
    <glyph glyph-name="bar" unicode="|" horiz-adv-x="188" 
d="M22 811h141v-805l-141 -143v948z" />
    <glyph glyph-name="afii10017" unicode="&#x410;" 
d="M24 699h479q61 -17 58 -87v-612h-176v321l-185 -94v-325l-176 100v307l361 195v49h-185v-116l-176 -96v358z" />
    <glyph glyph-name="afii10018" unicode="&#x411;" horiz-adv-x="574" 
d="M24 700h382l144 -161h-303v-8l303 -170v-339h-317v162h137v88l-166 97v-371l-173 -113h-7v815z" />
    <glyph glyph-name="afii10019" unicode="&#x412;" horiz-adv-x="585" 
d="M28 699h449q58 0 82 -59v-210l-97 -74l97 -57v-299h-322v156h150v110l-187 72v-333l-172 -105v799zM200 544v-165l187 91v74h-187z" />
    <glyph glyph-name="afii10020" unicode="&#x413;" horiz-adv-x="515" 
d="M19 700h383l98 -171h-307v-520l-174 -146v837z" />
    <glyph glyph-name="afii10021" unicode="&#x414;" horiz-adv-x="590" 
d="M407 700h157v-796l-176 133v470l-147 -84v-254h127v-169h-342v169h39v362z" />
    <glyph glyph-name="afii10022" unicode="&#x415;" horiz-adv-x="564" 
d="M16 700h391l147 -159h-351v-75h123l138 -159h-261v-142h196l147 -159h-530v694z" />
    <glyph glyph-name="afii10024" unicode="&#x416;" horiz-adv-x="819" 
d="M627 618l165 89v-311l-120 -67l120 -90v-235h-165v177l-135 104v-244l-165 -104v333l-128 -104v-161h-174v218l122 99l-120 59v311l2 8l163 -97v-165l135 -74v195l165 96v-296l135 84v175z" />
    <glyph glyph-name="afii10025" unicode="&#x417;" 
d="M121 700h309q128 0 128 -81v-203l-68 -73l68 -64v-203q0 -73 -94 -73h-454l86 170h282v97l-145 73l145 90v104h-359z" />
    <glyph glyph-name="afii10026" unicode="&#x418;" 
d="M567 800v-773h-227v74l-314 -166v166l366 221v358zM203 690v-445l-177 -108v424z" />
    <glyph glyph-name="afii10027" unicode="&#x419;" 
d="M423 1002v-157l-220 -151v149zM203 690v-445l-177 -108v424zM567 800v-773h-227v74l-314 -166v166l366 221v358z" />
    <glyph glyph-name="afii10028" unicode="&#x41a;" 
d="M555 760v-334l-137 -79l146 -97v-246h-206v207l-146 95v-286l-189 -88v685l189 87v-318l154 79v199z" />
    <glyph glyph-name="afii10029" unicode="&#x41b;" 
d="M372 700h185v-820l-183 128v474l-175 -118v-365h-175v454z" />
    <glyph glyph-name="afii10030" unicode="&#x41c;" horiz-adv-x="819" 
d="M28 700h697q68 -17 68 -87v-471l-197 -121v534h-83v-405l-205 -137v542h-83v-518l-197 -129v792z" />
    <glyph glyph-name="afii10031" unicode="&#x41d;" 
d="M21 700h168v-272l-168 -106v378zM374 700h176v-685h-176v299l-185 -115v-307l-168 114v281l353 217v196z" />
    <glyph glyph-name="afii10032" unicode="&#x41e;" horiz-adv-x="678" 
d="M137 700h514v-612q-16 -82 -79 -82h-245l-317 327h71v294q0 46 56 73zM279 537v-204h63l-152 -156h271v360h-182z" />
    <glyph glyph-name="afii10033" unicode="&#x41f;" 
d="M20 694h532v-840l-197 165v529h-138v-529h-197v675z" />
    <glyph glyph-name="afii10034" unicode="&#x420;" 
d="M22 700h478q62 -32 62 -110v-262l-316 -198v206l131 85v118h-185v-533l-170 -110v804z" />
    <glyph glyph-name="afii10035" unicode="&#x421;" 
d="M22 700h467q60 0 75 -93v-194h-181v127h-188v-388h264l-136 -160h-233q-57 0 -68 84v624z" />
    <glyph glyph-name="afii10036" unicode="&#x422;" horiz-adv-x="635" 
d="M27 700h454l129 -162h-236v-512l-174 -130v642h-173v162z" />
    <glyph glyph-name="afii10037" unicode="&#x423;" 
d="M20 700h177v-180l147 -81v-196l-324 171v286zM373 700h184v-694h-471l111 163h176v531z" />
    <glyph glyph-name="afii10038" unicode="&#x424;" horiz-adv-x="821" 
d="M507 823v-146h281v-663h-263v191h77v336h-95v-673l-190 146v527h-96v-336h78v-191h-268v600q0 49 35 63h255z" />
    <glyph glyph-name="afii10039" unicode="&#x425;" 
d="M22 700h185v-243l-128 -108l-57 54v297zM375 700h185v-270l-106 -88l106 -85v-258h-185v180l-85 72l-91 -72v-180h-177v252l228 186l37 -25l88 82v206z" />
    <glyph glyph-name="afii10040" unicode="&#x426;" horiz-adv-x="585" 
d="M373 630v-472h-165v530l-178 -130v-559h161l182 100v-99l188 -100v892z" />
    <glyph glyph-name="afii10041" unicode="&#x427;" 
d="M26 699h179v-199l143 -84v-205l-322 190v298zM378 699h179v-810l-179 160v650z" />
    <glyph glyph-name="afii10042" unicode="&#x428;" horiz-adv-x="819" 
d="M28 790l197 -129v-518h83v542l205 -137v-405h83v534l197 -121v-470q0 -71 -68 -88h-697v792z" />
    <glyph glyph-name="afii10043" unicode="&#x429;" horiz-adv-x="819" 
d="M605 -2h-577v792l197 -129v-518h83v542l205 -137v-405h83v534l197 -121v-678l-188 100v20z" />
    <glyph glyph-name="afii10044" unicode="&#x42a;" horiz-adv-x="678" 
d="M140 698v1h180l-1 -531h179v125l-134 74v183l298 -174v-373h-522v542h-130z" />
    <glyph glyph-name="afii10045" unicode="&#x42b;" horiz-adv-x="797" 
d="M30 699h179v-531h179v125l-134 74v183l298 -174v-373h-522v696zM589 699h179v-705l-179 -124v829z" />
    <glyph glyph-name="afii10046" unicode="&#x42c;" horiz-adv-x="574" 
d="M24 699h179v-531h179v125l-134 74v183l298 -174v-373h-522v696z" />
    <glyph glyph-name="afii10047" unicode="&#x42d;" horiz-adv-x="573" 
d="M158 694h392v-614q0 -81 -128 -81h-264l-145 178h358v105h-170l102 137h68v97h-358z" />
    <glyph glyph-name="afii10048" unicode="&#x42e;" horiz-adv-x="828" 
d="M20 700h168v-282l-168 -96v378zM262 245l-74 -46v-307l-168 114v281l242 145v217q24 51 76 51h453v-658q-11 -31 -44 -39l-126 159v384h-189v-391h173l120 -154h-387q-76 0 -76 82v162z" />
    <glyph glyph-name="afii10049" unicode="&#x42f;" 
d="M392 532l170 162v-798l-170 110v526zM540 700l-173 -161h-160v-118l131 -85l-55 -153l-261 145v262q0 78 62 110h456zM177 94v-199l-154 96v199l431 287l29 -177z" />
    <glyph glyph-name="afii10052" unicode="&#x403;" horiz-adv-x="543" 
d="M52 700h383l98 -171h-307v-520q-15 -26 -174 -146v837zM138 758l121 100q9 8 19 13.5t19 8.5q4 1 8.5 1.5t9.5 1.5q17 0 28 -10.5t11 -25.5q-1 -13 -7 -23t-18 -17q-4 -3 -8 -5t-29 -11l-143 -54z" />
    <glyph glyph-name="glyph146" unicode="&#x433;" horiz-adv-x="515" 
d="M19 700h383l98 -171h-307v-520l-174 -146v837z" />
    <glyph glyph-name="afii10108" horiz-adv-x="789" 
d="M500 835v-146h257v-667h-266v-137l-162 137h-300v603q0 50 34 64h266zM217 552v-338h95v338h-95zM500 552v-338h86v338h-86z" />
    <glyph glyph-name="afii10061" unicode="&#x40c;" horiz-adv-x="704" 
d="M584 760v-334q-56 -26 -137 -72q82 -54 146 -104v-246h-206v223l-146 79v-286l-189 -88v685l189 87v-318q152 65 154 79v199zM295 758l121 100q9 8 19 13.5t19 8.5q4 1 8.5 1.5t9.5 1.5q17 0 28 -10.5t11 -25.5q-1 -13 -7 -23t-18 -17q-4 -3 -8 -5t-29 -11l-143 -54z" />
    <glyph glyph-name="glyph177" unicode="&#x43a;" 
d="M555 760v-334l-137 -79l146 -97v-246h-206v207l-146 95v-286l-189 -88v685l189 87v-318l154 79v199z" />
    <glyph glyph-name="afii10109" unicode="&#x45c;" horiz-adv-x="445" 
d="M558 760v-334q-56 -26 -137 -72q82 -54 146 -104v-246h-206v223l-146 79v-286l-189 -88v685l189 87v-318q152 65 154 79v199zM272 716l105 130q8 9 18 14.5t22 5.5q16 0 26.5 -10.5t10.5 -26.5q0 -10 -4 -17.5t-12 -14.5q-4 -4 -10 -8t-21 -13l-122 -76z" />
    <glyph glyph-name="quotedblleft" unicode="&#x201c;" horiz-adv-x="387" 
d="M80 700l84 -72v-132h-84v204zM222 700l84 -72v-132h-84v204z" />
    <glyph glyph-name="quotedblright" unicode="&#x201d;" horiz-adv-x="387" 
d="M80 700h84v-132l-84 -72v204zM222 700h84v-132l-84 -72v204z" />
    <glyph glyph-name="quoteleft" unicode="&#x2018;" horiz-adv-x="222" 
d="M72 700l84 -72v-132h-84v204z" />
    <glyph glyph-name="quoteright" unicode="&#x2019;" horiz-adv-x="222" 
d="M72 700h84v-132l-84 -72v204z" />
    <glyph glyph-name="quotedblbase" unicode="&#x201e;" horiz-adv-x="387" 
d="M80 90h84v-132l-84 -72v204zM222 90h84v-132l-84 -72v204z" />
    <glyph glyph-name="afii61352" unicode="&#x2116;" horiz-adv-x="864" 
d="M659 470h101v-101h-101v101zM575 301h266v-101h-266v101zM26 699h164v-136l201 -178v314h164v-698h-166v160l-199 172v-332h-164v698z" />
    <glyph glyph-name="afii10023" unicode="&#x401;" horiz-adv-x="564" 
d="M105 870h110v-81l-110 -45v126zM290 870h110v-81l-110 -45v126zM16 700h391l147 -160h-360v-75h132l137 -159h-269v-150h206l146 -156h-530v700z" />
    <glyph glyph-name="afii10071" unicode="&#x451;" horiz-adv-x="564" 
d="M105 870h110v-81l-110 -45v126zM290 870h110v-81l-110 -45v126zM16 700h391l147 -160h-360v-75h132l137 -159h-269v-150h206l146 -156h-530v700z" />
    <glyph glyph-name="afii10097" unicode="&#x44f;" 
d="M392 436v96l170 162v-798l-170 110v233l-215 -145v-199l-154 96v199l113 75l-114 63v262q0 78 62 110h456l-173 -161h-160v-118l83 -54z" />
    <glyph glyph-name="afii10065" unicode="&#x430;" 
d="M24 699h479q61 -17 58 -87v-612h-176v321l-185 -94v-325l-176 100v307l361 195v49h-185v-116l-176 -96v358z" />
    <glyph glyph-name="afii10066" unicode="&#x431;" horiz-adv-x="574" 
d="M24 700h382l144 -161h-303v-8l303 -170v-339h-317v162h137v88l-166 97v-371l-173 -113h-7v815z" />
    <glyph glyph-name="afii10067" unicode="&#x432;" horiz-adv-x="585" 
d="M28 699h449q58 0 82 -59v-210l-97 -74l97 -57v-299h-322v156h150v110l-187 72v-333l-172 -105v799zM200 544v-165l187 91v74h-187z" />
    <glyph glyph-name="afii10069" unicode="&#x434;" horiz-adv-x="590" 
d="M407 700h157v-796l-176 133v470l-147 -84v-254h127v-169h-342v169h39v362z" />
    <glyph glyph-name="afii10070" unicode="&#x435;" horiz-adv-x="564" 
d="M16 700h391l147 -160h-360v-75h132l137 -159h-269v-150h206l146 -156h-530v700z" />
    <glyph glyph-name="afii10072" unicode="&#x436;" horiz-adv-x="819" 
d="M627 618l165 89v-311l-120 -67l120 -90v-235h-165v177l-135 104v-244l-165 -104v333l-128 -104v-161h-174v218l122 99l-120 59v311l2 8l163 -97v-165l135 -74v195l165 96v-296l135 84v175z" />
    <glyph glyph-name="afii10073" unicode="&#x437;" 
d="M121 700h309q128 0 128 -81v-203l-68 -73l68 -64v-203q0 -73 -94 -73h-454l86 170h282v97l-145 73l145 90v104h-359z" />
    <glyph glyph-name="afii10074" unicode="&#x438;" 
d="M560 790v-791h-473q-42 0 -66 58v535l185 99v-519h177v511z" />
    <glyph glyph-name="afii10075" unicode="&#x439;" 
d="M415 885v-157l-199 -96v149zM562 736v-731h-471q-42 0 -66 52v485l191 90v-470h169v492z" />
    <glyph glyph-name="afii10077" unicode="&#x43b;" 
d="M372 700h185v-820l-183 128v474l-175 -118v-365h-175v454z" />
    <glyph glyph-name="afii10078" unicode="&#x43c;" horiz-adv-x="819" 
d="M28 700h697q68 -17 68 -87v-471l-197 -121v534h-83v-405l-205 -137v542h-83v-518l-197 -129v792z" />
    <glyph glyph-name="afii10079" unicode="&#x43d;" 
d="M21 700h168v-272l-168 -106v378zM374 314l-185 -115v-184h-168v272l353 217v196h176v-808l-176 114v308z" />
    <glyph glyph-name="afii10080" unicode="&#x43e;" 
d="M99 700h453v-658q-14 -41 -66 -41h-387q-76 0 -76 82v566q24 51 76 51zM193 546v-391h189v391h-189z" />
    <glyph glyph-name="afii10081" unicode="&#x43f;" 
d="M20 694h532v-840l-197 165v529h-138v-529h-197v675z" />
    <glyph glyph-name="afii10082" unicode="&#x440;" 
d="M22 700h478q62 -32 62 -110v-262l-316 -198v206l131 85v118h-185v-533l-170 -110v804z" />
    <glyph glyph-name="afii10083" unicode="&#x441;" 
d="M22 700h467q60 0 75 -93v-194h-181v127h-188v-388h264l-136 -160h-233q-57 0 -68 84v624z" />
    <glyph glyph-name="afii10084" unicode="&#x442;" horiz-adv-x="600" 
d="M27 700h424l129 -162h-206v-512l-174 -130v642h-173v162z" />
    <glyph glyph-name="afii10085" unicode="&#x443;" 
d="M20 700h177v-180l147 -81v-196l-324 171v286zM373 700h184v-694h-471l111 163h176v531z" />
    <glyph glyph-name="afii10086" unicode="&#x444;" horiz-adv-x="945" 
d="M392 539h-185v-118l185 -105v223zM392 123l-370 205v262q0 78 62 110h786q62 -32 62 -110v-262l-316 -178v186l131 85v118h-185v-533l-170 -110v227z" />
    <glyph glyph-name="afii10087" unicode="&#x445;" 
d="M22 700h185v-243l-128 -108l-57 54v297zM375 700h185v-270l-106 -88l106 -85v-258h-185v180l-85 72l-91 -72v-180h-177v252l228 186l37 -25l88 82v206z" />
    <glyph glyph-name="afii10088" unicode="&#x446;" horiz-adv-x="585" 
d="M373 630v-472h-165v530l-178 -130v-559h161l182 100v-99l188 -100v892z" />
    <glyph glyph-name="afii10089" unicode="&#x447;" 
d="M26 699h179v-199l143 -84v-205l-322 190v298zM378 699h179v-810l-179 160v650z" />
    <glyph glyph-name="afii10090" unicode="&#x448;" horiz-adv-x="819" 
d="M28 790l197 -129v-518h83v542l205 -137v-405h83v534l197 -121v-470q0 -71 -68 -88h-697v792z" />
    <glyph glyph-name="afii10091" unicode="&#x449;" horiz-adv-x="819" 
d="M605 -2h-577v792l197 -129v-518h83v542l205 -137v-405h83v534l197 -121v-678l-188 100v20z" />
    <glyph glyph-name="afii10092" unicode="&#x44a;" horiz-adv-x="678" 
d="M140 698v1h180v-154h-1v-377h179v125l-134 74v183l298 -174v-373h-522v542h-130z" />
    <glyph glyph-name="afii10093" unicode="&#x44b;" horiz-adv-x="797" 
d="M30 699h179v-531h179v125l-134 74v183l298 -174v-373h-522v696zM589 699h179v-705l-179 -124v829z" />
    <glyph glyph-name="afii10094" unicode="&#x44c;" horiz-adv-x="574" 
d="M24 699h179v-531h179v125l-134 74v183l298 -174v-373h-522v696z" />
    <glyph glyph-name="afii10095" unicode="&#x44d;" horiz-adv-x="573" 
d="M158 694h392v-614q0 -81 -128 -81h-264l-145 178h358v105h-170l102 137h68v97h-358z" />
    <glyph glyph-name="afii10096" unicode="&#x44e;" horiz-adv-x="828" 
d="M20 700h168v-282l-168 -96v378zM262 245l-74 -46v-307l-168 114v281l242 145v217q24 51 76 51h453v-658q-11 -31 -44 -39l-126 159v384h-189v-391h173l120 -154h-387q-76 0 -76 82v162z" />
  </font>
</defs>
</svg>
